<svg xmlns="http://www.w3.org/2000/svg" width="595.281" height="595.275" viewBox="0 0 595.281 595.275"><g fill="#61DAFB"><circle cx="297.641" cy="297.637" r="53.018"/><path d="M499.014 210.205c-10.231-3.722-20.928-7.441-32.09-10.696a468.779 468.779 0 0 0 6.978-33.021c9.766-61.389-.933-104.64-30.695-121.382-8.836-5.115-18.603-7.439-29.764-7.439-32.556 0-73.945 24.183-115.802 64.644-41.855-40.461-83.246-64.644-115.801-64.644-11.161 0-20.928 2.324-29.764 7.439-29.765 17.208-40.461 60.458-30.694 121.382a466.966 466.966 0 0 0 6.976 33.021c-11.162 3.255-21.857 6.511-32.089 10.696-58.133 22.323-89.757 53.017-89.757 87.432s32.089 65.11 89.757 87.432c10.231 3.721 20.928 7.441 32.089 10.697a466.232 466.232 0 0 0-6.976 33.02c-9.766 61.389.93 104.639 30.694 121.381 8.836 5.115 18.603 7.441 29.764 7.441 33.02 0 74.41-24.184 115.801-64.645 41.855 40.461 83.246 64.645 115.802 64.645 11.161 0 20.928-2.326 29.764-7.441 29.764-17.207 40.461-60.457 30.695-121.381a467.3 467.3 0 0 0-6.978-33.02c11.162-3.256 21.857-6.512 32.09-10.697 58.134-22.322 89.756-53.018 89.756-87.432 0-34.415-31.624-65.108-89.756-87.432zm-68.83-141.844c19.068 11.162 25.578 45.576 17.673 94.408-1.396 9.768-3.722 19.998-6.511 30.694-24.184-5.581-49.762-9.302-76.735-11.627-15.813-22.323-32.091-42.32-48.367-60.458 34.416-33.949 69.295-57.203 97.664-57.203 6.044 0 11.626 1.396 16.276 4.186zm-52.088 275.782c-8.371 14.883-18.137 29.766-28.367 44.646-17.209 1.396-34.416 1.861-52.088 1.861-18.137 0-35.345-.467-52.087-1.861-10.231-14.881-19.533-29.764-27.904-44.646-8.836-15.348-17.208-31.158-24.647-46.506 7.44-15.347 15.812-31.159 24.647-46.506 8.371-14.883 18.138-29.766 28.369-44.646 17.208-1.396 34.415-1.859 52.087-1.859 18.139 0 35.346.465 52.088 1.859 10.229 14.882 19.53 29.765 27.901 44.646 8.838 15.347 17.209 31.159 24.648 46.506-7.905 15.348-15.809 30.694-24.647 46.506zm38.602-15.347c6.975 16.277 12.557 32.09 17.672 47.902-15.813 3.721-32.555 6.512-50.228 8.836 5.58-8.836 11.627-18.139 16.742-27.904 5.581-9.766 10.697-19.532 15.814-28.834zM297.641 454.829c-11.162-12.092-21.857-25.113-32.089-38.602 10.696.467 21.393.932 32.089.932 10.697 0 21.394-.465 32.091-.932-10.233 13.489-20.929 26.51-32.091 38.602zm-86.501-69.76c-17.672-2.324-34.415-5.115-50.227-8.836 5.115-15.348 10.696-31.623 17.672-47.9 5.116 9.301 10.23 19.066 15.813 28.369 5.58 10.23 11.161 19.066 16.742 28.367zm-32.555-118.591c-6.977-16.277-12.558-32.089-17.672-47.9 15.812-3.722 32.555-6.512 50.227-8.837-5.581 8.837-11.627 18.138-16.742 27.903-5.583 9.767-10.697 19.532-15.813 28.834zm119.056-126.032c11.162 12.093 21.857 25.113 32.091 38.602-10.697-.465-21.394-.932-32.091-.932-10.696 0-21.393.467-32.089.932 10.231-13.489 20.927-26.511 32.089-38.602zm103.244 97.663l-16.742-27.902c17.673 2.324 34.414 5.114 50.228 8.836-5.115 15.348-10.697 31.624-17.672 47.9-5.116-9.766-10.234-19.532-15.814-28.834zm-253.459-75.34c-7.906-48.832-1.396-83.246 17.672-94.408 4.651-2.79 10.231-4.186 16.277-4.186 27.903 0 62.784 22.788 97.663 57.203-16.277 17.673-32.555 38.135-48.366 60.458-26.975 2.325-52.552 6.511-76.735 11.627-2.791-10.696-4.651-20.927-6.511-30.694zM32.556 297.637c0-21.858 26.508-45.111 73.015-62.318 9.302-3.721 19.533-6.976 29.765-9.767 7.44 23.253 16.742 47.901 27.903 72.55-11.161 24.649-20.928 48.833-27.903 72.084-64.181-18.601-102.78-46.506-102.78-72.549zm132.542 229.276c-19.067-11.162-25.578-45.576-17.672-94.408 1.396-9.766 3.721-19.996 6.511-30.693 24.184 5.58 49.763 9.303 76.735 11.627 15.812 22.322 32.089 42.32 48.366 60.457-34.415 33.951-69.294 57.203-97.663 57.203-6.045-.001-11.626-1.395-16.277-4.186zm282.758-94.408c7.905 48.832 1.396 83.246-17.673 94.408-4.649 2.791-10.229 4.186-16.276 4.186-27.904 0-62.783-22.787-97.662-57.203 16.274-17.672 32.553-38.135 48.365-60.457 26.975-2.324 52.553-6.512 76.735-11.627 2.79 10.697 4.652 20.929 6.511 30.693zm41.855-72.549c-9.301 3.721-19.531 6.977-29.764 9.766-7.441-23.252-16.742-47.9-27.904-72.549 11.162-24.648 20.928-48.832 27.904-72.085 64.18 18.603 102.778 46.506 102.778 72.55.002 21.857-26.973 45.111-73.014 62.318z"/></g></svg>